<?xml version="1.0" encoding="UTF-8" standalone="no"?>
<svg
   xmlns:dc="http://purl.org/dc/elements/1.1/"
   xmlns:cc="http://creativecommons.org/ns#"
   xmlns:rdf="http://www.w3.org/1999/02/22-rdf-syntax-ns#"
   xmlns:svg="http://www.w3.org/2000/svg"
   xmlns="http://www.w3.org/2000/svg"
   xmlns:sodipodi="http://sodipodi.sourceforge.net/DTD/sodipodi-0.dtd"
   xmlns:inkscape="http://www.inkscape.org/namespaces/inkscape"
   width="273.39001pt"
   height="273.39001pt"
   viewBox="0 0 273.39 273.39002"
   version="1.2"
   id="svg4401"
   sodipodi:docname="twitter.svg"
   inkscape:version="0.92.3 (2405546, 2018-03-11)">
  <metadata
     id="metadata4405">
    <rdf:RDF>
      <cc:Work
         rdf:about="">
        <dc:format>image/svg+xml</dc:format>
        <dc:type
           rdf:resource="http://purl.org/dc/dcmitype/StillImage" />
        <dc:title></dc:title>
      </cc:Work>
    </rdf:RDF>
  </metadata>
  <sodipodi:namedview
     pagecolor="#ffffff"
     bordercolor="#666666"
     borderopacity="1"
     objecttolerance="10"
     gridtolerance="10"
     guidetolerance="10"
     inkscape:pageopacity="0"
     inkscape:pageshadow="2"
     inkscape:window-width="640"
     inkscape:window-height="480"
     id="namedview4403"
     showgrid="false"
     inkscape:pagecheckerboard="false"
     inkscape:zoom="0.96543346"
     inkscape:cx="203.76313"
     inkscape:cy="135.2546"
     inkscape:current-layer="svg4401" />
  <defs
     id="defs4394">
    <clipPath
       id="clip1">
      <path
         d="M 0,0 H 273.39062 V 222.17969 H 0 Z m 0,0"
         id="path4391"
         inkscape:connector-curvature="0" />
    </clipPath>
  </defs>
  <g
     style="clip-rule:nonzero;fill:#000080;fill-opacity:1"
     id="g4398"
     clip-path="url(#clip1)"
     transform="translate(-3.05e-4,25.603207)">
    <path
       inkscape:connector-curvature="0"
       id="path4396"
       d="m 273.39062,26.304688 c -10.05859,4.460937 -20.87109,7.472656 -32.21484,8.832031 11.58203,-6.945313 20.47266,-17.9375 24.66016,-31.035157 C 255,10.53125 242.99609,15.199219 230.21875,17.714844 219.98828,6.8125 205.41016,0.00390625 189.27734,0.00390625 c -30.97656,0 -56.08984,25.10937475 -56.08984,56.08593775 0,4.394531 0.49609,8.675781 1.45312,12.78125 C 88.027344,66.53125 46.695312,44.203125 19.03125,10.269531 14.203125,18.554688 11.4375,28.1875 11.4375,38.46875 c 0,19.457031 9.902344,36.625 24.953125,46.683594 -9.195313,-0.292969 -17.84375,-2.8125 -25.40625,-7.015625 -0.0039,0.234375 -0.0039,0.46875 -0.0039,0.707031 0,27.17578 19.335937,49.84375 44.992187,54.99609 -4.707031,1.28125 -9.660156,1.96875 -14.777344,1.96875 -3.613281,0 -7.125,-0.35156 -10.550781,-1.00781 7.136719,22.28516 27.851563,38.5 52.394531,38.95313 C 63.84375,188.79687 39.65625,197.76562 13.378906,197.76562 8.851562,197.76562 4.386719,197.5 0,196.98047 c 24.824219,15.91406 54.304688,25.19922 85.980469,25.19922 103.167971,0 159.582031,-85.46875 159.582031,-159.58594 0,-2.433594 -0.0508,-4.851562 -0.16016,-7.253906 10.95703,-7.910156 20.46875,-17.789063 27.98828,-29.035156"
       style="fill:#000080;fill-opacity:1;fill-rule:nonzero;stroke:none" />
  </g>
</svg>
