<?xml version="1.0" encoding="UTF-8" standalone="no"?>
<svg
   xmlns:dc="http://purl.org/dc/elements/1.1/"
   xmlns:cc="http://creativecommons.org/ns#"
   xmlns:rdf="http://www.w3.org/1999/02/22-rdf-syntax-ns#"
   xmlns:svg="http://www.w3.org/2000/svg"
   xmlns="http://www.w3.org/2000/svg"
   id="svg4983"
   version="1.2"
   viewBox="0 0 503.84 503.84"
   height="503.84pt"
   width="503.84pt">
  <metadata
     id="metadata4987">
    <rdf:RDF>
      <cc:Work
         rdf:about="">
        <dc:format>image/svg+xml</dc:format>
        <dc:type
           rdf:resource="http://purl.org/dc/dcmitype/StillImage" />
        <dc:title></dc:title>
      </cc:Work>
    </rdf:RDF>
  </metadata>
  <defs
     id="defs4972">
    <clipPath
       id="clip1">
      <path
         id="path4969"
         d="M 0 0 L 503.839844 0 L 503.839844 503.839844 L 0 503.839844 Z M 0 0 " />
    </clipPath>
  </defs>
  <g
     clip-path="url(#clip1)"
     id="g4976"
     style="clip-rule:nonzero;fill:#000080;fill-opacity:1">
    <path
       style="fill:#000080;fill-opacity:1;fill-rule:nonzero;stroke:none"
       d="M 251.92187,0 C 183.50391,0 174.92578,0.289062 148.05469,1.515625 121.23828,2.738281 102.92578,6.996094 86.902344,13.222656 70.335938,19.660156 56.289062,28.277344 42.28125,42.28125 28.277344,56.285156 19.664062,70.335938 13.226562,86.902344 7,102.92578 2.738281,121.23828 1.515625,148.05469 0.289062,174.92187 0,183.50391 0,251.92187 0,320.33594 0.289062,328.91406 1.515625,355.78516 2.738281,382.60156 7,400.91406 13.226562,416.9375 c 6.4375,16.56641 15.050782,30.61328 29.054688,44.62109 14.007812,14.00391 28.054688,22.61719 44.621094,29.05469 16.023436,6.23047 34.335936,10.48828 61.152346,11.71094 26.87109,1.22656 35.44922,1.51562 103.86718,1.51562 68.41797,0 76.9961,-0.28906 103.86329,-1.51562 26.8164,-1.22266 45.1289,-5.48047 61.15234,-11.71094 16.56641,-6.4375 30.61719,-15.05078 44.62109,-29.05469 14.00391,-14.00781 22.6211,-28.05468 29.0586,-44.62109 6.22656,-16.02344 10.48437,-34.33594 11.70703,-61.15234 1.22656,-26.8711 1.51562,-35.44922 1.51562,-103.86329 0,-68.41796 -0.28906,-77 -1.51562,-103.86718 -1.22266,-26.81641 -5.48047,-45.12891 -11.70703,-61.152346 C 484.17969,70.335938 475.5625,56.285156 461.55859,42.28125 447.55469,28.277344 433.50391,19.660156 416.9375,13.222656 400.91406,6.996094 382.60156,2.738281 355.78516,1.515625 328.91797,0.289062 320.33984,0 251.92187,0 Z m 0,45.390625 c 67.26563,0 75.23047,0.257813 101.79688,1.46875 24.5625,1.121094 37.89844,5.222656 46.77734,8.671875 11.75782,4.570312 20.15235,10.03125 28.96485,18.847656 8.8164,8.8125 14.27734,17.207032 18.84765,28.964844 3.44922,8.87891 7.55078,22.21484 8.67188,46.77734 1.21094,26.56641 1.46875,34.53125 1.46875,101.80078 0,67.26172 -0.25781,75.23047 -1.46875,101.79688 -1.1211,24.55859 -5.22266,37.89844 -8.67188,46.77734 -4.57031,11.75782 -10.03125,20.14844 -18.84765,28.96485 -8.8125,8.8164 -17.20703,14.27343 -28.96485,18.84375 -8.8789,3.45312 -22.21484,7.55468 -46.77734,8.67578 -26.5625,1.21094 -34.52734,1.46875 -101.79688,1.46875 -67.27343,0 -75.23828,-0.25781 -101.80078,-1.46875 -24.55859,-1.1211 -37.89843,-5.22266 -46.77734,-8.67578 -11.757812,-4.57032 -20.148438,-10.02735 -28.964844,-18.84375 -8.816406,-8.81641 -14.273437,-17.20703 -18.84375,-28.96485 -3.449218,-8.8789 -7.554687,-22.21875 -8.675781,-46.77734 -1.210937,-26.56641 -1.46875,-34.53516 -1.46875,-101.79688 0,-67.26953 0.257813,-75.23437 1.46875,-101.80078 1.121094,-24.5625 5.226563,-37.89843 8.675781,-46.77734 C 60.105469,91.585938 65.5625,83.191406 74.378906,74.378906 83.195312,65.5625 91.585938,60.101562 103.34375,55.53125 c 8.87891,-3.449219 22.21875,-7.550781 46.77734,-8.671875 26.56641,-1.210937 34.53516,-1.46875 101.80078,-1.46875"
       id="path4974" />
  </g>
  <path
     style="fill:#000080;fill-opacity:1;fill-rule:nonzero;stroke:none"
     d="m 251.92187,335.89453 c -46.3789,0 -83.97656,-37.59766 -83.97656,-83.97266 0,-46.3789 37.59766,-83.97656 83.97656,-83.97656 46.375,0 83.97266,37.59766 83.97266,83.97656 0,46.375 -37.59766,83.97266 -83.97266,83.97266 z m 0,-213.33984 c -71.44921,0 -129.36718,57.91797 -129.36718,129.36718 0,71.44532 57.91797,129.36329 129.36718,129.36329 71.44532,0 129.36329,-57.91797 129.36329,-129.36329 0,-71.44921 -57.91797,-129.36718 -129.36329,-129.36718"
     id="path4978" />
  <path
     style="fill:#000080;fill-opacity:1;fill-rule:nonzero;stroke:none"
     d="m 416.62891,117.44531 c 0,16.69531 -13.53516,30.23047 -30.23438,30.23047 -16.69531,0 -30.23047,-13.53516 -30.23047,-30.23047 0,-16.69922 13.53516,-30.230466 30.23047,-30.230466 16.69922,0 30.23438,13.531246 30.23438,30.230466"
     id="path4980" />
</svg>
