<?xml version="1.0" standalone="no"?>
<!DOCTYPE svg PUBLIC "-//W3C//DTD SVG 20010904//EN"
 "http://www.w3.org/TR/2001/REC-SVG-20010904/DTD/svg10.dtd">
<svg version="1.0" xmlns="http://www.w3.org/2000/svg"
 width="260.000000pt" height="260.000000pt" viewBox="0 0 260.000000 260.000000"
 preserveAspectRatio="xMidYMid meet">
<metadata>
Created by potrace 1.11, written by Peter Selinger 2001-2013
</metadata>
<g transform="translate(0.000000,260.000000) scale(0.100000,-0.100000)"
fill="#000000" stroke="none">
<path d="M686 2263 c-82 -28 -152 -108 -190 -218 -28 -79 -30 -224 -5 -317
l21 -77 -31 -44 c-72 -105 -140 -280 -159 -407 -9 -64 -8 -235 2 -299 28 -170
115 -360 221 -479 141 -160 235 -229 391 -288 256 -96 582 -82 814 36 170 86
337 257 429 440 161 316 137 711 -60 997 -24 35 -29 50 -23 71 4 15 8 32 10
37 1 6 7 24 12 41 6 17 10 68 10 112 1 304 -210 494 -402 364 -47 -32 -112
-129 -127 -188 -11 -41 -11 -42 -44 -33 -55 16 -217 35 -272 33 -93 -3 -208
-21 -256 -40 -12 -4 -17 -1 -17 11 0 32 -61 146 -101 186 -65 66 -147 89 -223
62z"/>
</g>
</svg>
