<?xml version="1.0" encoding="UTF-8" standalone="no"?>
<!-- Created with Inkscape (http://www.inkscape.org/) -->

<svg
   xmlns:dc="http://purl.org/dc/elements/1.1/"
   xmlns:cc="http://creativecommons.org/ns#"
   xmlns:rdf="http://www.w3.org/1999/02/22-rdf-syntax-ns#"
   xmlns:svg="http://www.w3.org/2000/svg"
   xmlns="http://www.w3.org/2000/svg"
   xmlns:sodipodi="http://sodipodi.sourceforge.net/DTD/sodipodi-0.dtd"
   xmlns:inkscape="http://www.inkscape.org/namespaces/inkscape"
   width="10mm"
   height="7mm"
   viewBox="0 0 10 7"
   version="1.1"
   id="svg3420"
   inkscape:version="0.92.3 (2405546, 2018-03-11)"
   sodipodi:docname="email-icon.svg">
  <defs
     id="defs3414" />
  <sodipodi:namedview
     id="base"
     pagecolor="#ffffff"
     bordercolor="#666666"
     borderopacity="1.0"
     inkscape:pageopacity="0.0"
     inkscape:pageshadow="2"
     inkscape:zoom="22.627417"
     inkscape:cx="8.8055273"
     inkscape:cy="19.149834"
     inkscape:document-units="mm"
     inkscape:current-layer="layer1"
     showgrid="false"
     borderlayer="false"
     inkscape:snap-global="true"
     inkscape:snap-page="true"
     showguides="true"
     inkscape:guide-bbox="true"
     inkscape:snap-bbox="true"
     inkscape:bbox-paths="true"
     inkscape:bbox-nodes="true"
     inkscape:snap-bbox-edge-midpoints="true"
     inkscape:snap-bbox-midpoints="true"
     inkscape:snap-intersection-paths="true"
     inkscape:snap-midpoints="true"
     inkscape:snap-object-midpoints="true"
     inkscape:snap-center="false">
    <inkscape:grid
       type="xygrid"
       id="grid3988" />
    <sodipodi:guide
       position="4.9999999,1.1926701"
       orientation="1,0"
       id="guide7721"
       inkscape:locked="false" />
    <sodipodi:guide
       position="9.1748177,4.9395887"
       orientation="0,1"
       id="guide7723"
       inkscape:locked="false" />
  </sodipodi:namedview>
  <metadata
     id="metadata3417">
    <rdf:RDF>
      <cc:Work
         rdf:about="">
        <dc:format>image/svg+xml</dc:format>
        <dc:type
           rdf:resource="http://purl.org/dc/dcmitype/StillImage" />
        <dc:title></dc:title>
      </cc:Work>
    </rdf:RDF>
  </metadata>
  <g
     inkscape:label="Layer 1"
     inkscape:groupmode="layer"
     id="layer1"
     transform="translate(0,-290)">
    <g
       aria-label="@"
       style="font-style:normal;font-variant:normal;font-weight:bold;font-stretch:normal;font-size:7.05555534px;line-height:123.00000191%;font-family:Roboto;-inkscape-font-specification:'Roboto, Bold';font-variant-ligatures:normal;font-variant-caps:normal;font-variant-numeric:normal;font-feature-settings:normal;text-align:start;writing-mode:lr-tb;text-anchor:start;opacity:1;fill:#ffffff;fill-opacity:1;fill-rule:nonzero;stroke:#ffffff;stroke-width:0.23162723;stroke-linecap:round;stroke-linejoin:round;stroke-miterlimit:4;stroke-dasharray:none;stroke-dashoffset:0;stroke-opacity:1"
       id="text7716"
       transform="matrix(0.49096992,0,0,0.49096992,1.5476055,149.02565)">
      <path
         d="m 9.895003,291.14333 q -0.037896,0.88194 -0.4375271,1.40215 -0.396186,0.51677 -1.0679796,0.51677 -0.2962782,0 -0.5133192,-0.12747 -0.2135959,-0.12747 -0.323839,-0.36518 -0.3445095,0.48231 -0.8991699,0.48231 -0.5029839,0 -0.7785915,-0.42375 -0.2756077,-0.42374 -0.2067058,-1.11965 0.062012,-0.56844 0.285943,-1.00942 0.2273763,-0.44441 0.5718858,-0.68212 0.3445095,-0.23772 0.7441406,-0.23772 0.4926486,0 0.8406033,0.22738 l 0.217041,0.14814 -0.1756999,1.99126 q -0.034451,0.27217 0.058567,0.41686 0.096463,0.1447 0.3031684,0.1447 0.3169488,0 0.5305447,-0.36863 0.2135959,-0.37207 0.2342665,-0.97152 0.058567,-1.20234 -0.4857584,-1.84657 -0.54088,-0.64768 -1.6054145,-0.64768 -0.6649034,0 -1.1851128,0.33762 -0.5202094,0.33762 -0.8199327,0.96119 -0.2997233,0.62011 -0.3376194,1.42282 -0.055122,1.21956 0.4892036,1.88447 0.5443251,0.66835 1.6295301,0.66835 0.2859429,0 0.5994466,-0.0655 0.3135037,-0.062 0.54088,-0.16881 l 0.1309136,0.53054 q -0.2101508,0.13781 -0.5684407,0.22049 -0.3548449,0.0861 -0.7165799,0.0861 -0.9095052,0 -1.5502929,-0.36863 -0.6407877,-0.36518 -0.9577365,-1.08176 -0.3135037,-0.71313 -0.2721625,-1.70532 0.041341,-0.95085 0.434082,-1.70532 0.3927408,-0.75448 1.0679795,-1.16444 0.6786838,-0.41342 1.5296224,-0.41342 0.8647189,0 1.4882812,0.37207 0.6235623,0.36863 0.9336208,1.05765 0.3100586,0.68902 0.2721626,1.60197 z m -3.4623209,0.36518 q -0.037896,0.45475 0.079237,0.69246 0.1171333,0.23427 0.3789605,0.23427 0.1688097,0 0.3203939,-0.14814 0.1515842,-0.14814 0.2514919,-0.42719 l 0.144694,-1.62953 q -0.1343587,-0.0448 -0.2756076,-0.0448 -0.396186,0 -0.6166721,0.33762 -0.217041,0.33762 -0.2824978,0.9853 z"
         style="font-size:7.05555534px;fill:#ffffff;stroke:#ffffff;stroke-width:0.23162723;stroke-miterlimit:4;stroke-dasharray:none"
         id="path7718"
         inkscape:connector-curvature="0" />
    </g>
    <rect
       style="opacity:1;fill:#000080;fill-opacity:1;fill-rule:nonzero;stroke:#ffffff;stroke-width:0;stroke-linecap:round;stroke-linejoin:round;stroke-miterlimit:4;stroke-dasharray:none;stroke-dashoffset:0;stroke-opacity:1"
       id="rect3982"
       width="10"
       height="6.9999962"
       x="7.8637541e-09"
       y="290" />
    <path
       style="color:#000000;clip-rule:nonzero;display:inline;overflow:visible;visibility:visible;opacity:1;isolation:auto;mix-blend-mode:normal;color-interpolation:sRGB;color-interpolation-filters:linearRGB;solid-color:#000000;solid-opacity:1;fill:none;fill-opacity:1;fill-rule:evenodd;stroke:#ffffff;stroke-width:0.66500002;stroke-linecap:butt;stroke-linejoin:miter;stroke-miterlimit:4;stroke-dasharray:none;stroke-dashoffset:0;stroke-opacity:1;color-rendering:auto;image-rendering:auto;shape-rendering:auto;text-rendering:auto;enable-background:accumulate"
       d="M 0.91328202,291.62993 5,295.27816 9.086718,291.62993"
       id="path3986"
       inkscape:connector-curvature="0"
       sodipodi:nodetypes="ccc" />
  </g>
</svg>
